<?xml version="1.0" encoding="UTF-8"?>
<svg width="270" height="48" version="1.1" viewBox="0 0 270 48" xmlns="http://www.w3.org/2000/svg">
 <g transform="scale(.97072 1.0302)" fill="#fff" stroke-width=".97072" aria-label="Dolosfox Nightly">
  <path d="m2.0974 36.249v-27.188h7.8492q15.035 0 15.035 13.253 0 6.2945-4.1711 10.124-4.1711 3.8108-11.186 3.8108zm4.4934-23.358v19.547h3.6023q4.7588 0 7.3941-2.6164 2.6543-2.6164 2.6543-7.3941 0-9.5365-9.8778-9.5365z"/>
  <path d="m37.074 36.704q-4.4934 0-7.1856-2.7112-2.6733-2.7301-2.6733-7.2235 0-4.8915 2.787-7.6406 2.806-2.7491 7.5458-2.7491 4.5502 0 7.0908 2.6733 2.5406 2.6733 2.5406 7.4131 0 4.645-2.7491 7.451-2.7301 2.787-7.3562 2.787zm0.20855-16.817q-2.5785 0-4.0763 1.8011-1.4978 1.8011-1.4978 4.9673 0 3.0525 1.5167 4.8157 1.5167 1.7443 4.0573 1.7443 2.5974 0 3.9815-1.7253 1.403-1.7253 1.403-4.9105 0-3.2041-1.403-4.9484-1.384-1.7443-3.9815-1.7443z"/>
  <path d="m55.119 36.249h-4.4175v-28.742h4.4175z"/>
  <path d="m68.501 36.704q-4.4934 0-7.1856-2.7112-2.6733-2.7301-2.6733-7.2235 0-4.8915 2.787-7.6406 2.806-2.7491 7.5458-2.7491 4.5502 0 7.0908 2.6733 2.5405 2.6733 2.5405 7.4131 0 4.645-2.7491 7.451-2.7301 2.787-7.3562 2.787zm0.20855-16.817q-2.5785 0-4.0763 1.8011-1.4978 1.8011-1.4978 4.9673 0 3.0525 1.5167 4.8157 1.5167 1.7443 4.0573 1.7443 2.5974 0 3.9815-1.7253 1.403-1.7253 1.403-4.9105 0-3.2041-1.403-4.9484-1.384-1.7443-3.9815-1.7443z"/>
  <path d="m80.915 35.642v-4.0763q2.4647 1.877 5.4413 1.877 3.9815 0 3.9815-2.351 0-0.66358-0.34127-1.1186-0.34127-0.47398-0.92901-0.83421-0.56878-0.36023-1.3651-0.64462-0.77733-0.28439-1.7443-0.64462-1.1944-0.47398-2.1614-1.0048-0.94797-0.53086-1.5926-1.1944-0.62566-0.68254-0.94797-1.5357-0.32231-0.85317-0.32231-1.9907 0-1.403 0.66358-2.4647 0.66358-1.0807 1.7822-1.8011 1.1186-0.73941 2.5405-1.0996 1.422-0.37919 2.9387-0.37919 2.6922 0 4.8157 0.81525v3.8487q-2.0476-1.403-4.7019-1.403-0.83421 0-1.5167 0.17063-0.66358 0.17063-1.1376 0.47398t-0.73941 0.73941q-0.26543 0.4171-0.26543 0.92901 0 0.62566 0.26543 1.0617 0.26543 0.43606 0.77733 0.77733 0.53086 0.32231 1.2513 0.6067 0.73941 0.26543 1.6874 0.58774 1.2513 0.5119 2.2372 1.0428 1.0048 0.53086 1.7063 1.2134 0.7015 0.66358 1.0807 1.5547 0.37919 0.87213 0.37919 2.0855 0 1.4788-0.68254 2.5785-0.68254 1.0996-1.8201 1.8201-1.1376 0.72045-2.6353 1.0617-1.4788 0.36023-3.1283 0.36023-3.1852 0-5.5172-1.0617z"/>
  <path d="m108.9 11.09q-0.89109-0.5119-2.0286-0.5119-3.2041 0-3.2041 3.6212v2.6353h4.5123v3.4506h-4.4934v15.964h-4.3986v-15.964h-3.3179v-3.4506h3.3179v-3.1472q0-3.0714 2.0097-4.8346 2.0097-1.7822 5.0242-1.7822 1.6305 0 2.5785 0.36023z"/>
  <path d="m118.98 36.704q-4.4934 0-7.1856-2.7112-2.6733-2.7301-2.6733-7.2235 0-4.8915 2.787-7.6406 2.806-2.7491 7.5458-2.7491 4.5502 0 7.0908 2.6733t2.5406 7.4131q0 4.645-2.7491 7.451-2.7301 2.787-7.3562 2.787zm0.20855-16.817q-2.5785 0-4.0762 1.8011-1.4978 1.8011-1.4978 4.9673 0 3.0525 1.5168 4.8157 1.5167 1.7443 4.0573 1.7443 2.5974 0 3.9815-1.7253 1.403-1.7253 1.403-4.9105 0-3.2041-1.403-4.9484-1.384-1.7443-3.9815-1.7443z"/>
  <path d="m148.23 16.834-6.4651 9.8209 6.3893 9.5934h-5.1001l-3.4127-6.0101q-0.3223-0.54982-0.75837-1.403h-0.0758q-0.0758 0.17063-0.79629 1.403l-3.4696 6.0101h-5.0811l6.5978-9.5176-6.2566-9.8968h5.119l3.3558 6.3135q0.37919 0.7015 0.73942 1.4409h0.0569l4.3417-7.7544z"/>
  <path d="m183.75 36.249h-3.9056l-13.992-21.671q-0.53086-0.81525-0.87213-1.7063h-0.11376q0.15168 0.87213 0.15168 3.735v19.642h-3.1852v-27.188h4.1331l13.613 21.329q0.85317 1.3272 1.0996 1.8201h0.0758q-0.1896-1.1755-0.1896-4.0004v-19.149h3.1852z"/>
  <path d="m191.09 11.905q-0.83421 0-1.422-0.56878-0.58773-0.56878-0.58773-1.4409 0-0.87213 0.58773-1.4409 0.58774-0.58774 1.422-0.58774 0.85317 0 1.4409 0.58774 0.6067 0.56878 0.6067 1.4409 0 0.83421-0.6067 1.4219-0.58774 0.58774-1.4409 0.58774zm1.5168 24.344h-3.1093v-19.414h3.1093z"/>
  <path d="m214.5 34.694q0 10.693-10.238 10.693-3.6023 0-6.2945-1.3651v-3.1093q3.28 1.8201 6.2566 1.8201 7.1666 0 7.1666-7.6216v-2.1234h-0.0758q-2.2182 3.716-6.6737 3.716-3.6212 0-5.8395-2.5785-2.1993-2.5974-2.1993-6.9581 0-4.9484 2.3699-7.8681 2.3889-2.9197 6.522-2.9197 3.9246 0 5.8205 3.1472h0.0758v-2.6922h3.1093zm-3.1093-7.2235v-2.8629q0-2.313-1.5736-3.9625-1.5547-1.6495-3.8867-1.6495-2.8818 0-4.5123 2.1045-1.6305 2.0855-1.6305 5.8584 0 3.242 1.5547 5.1949 1.5736 1.9339 4.1521 1.9339 2.6164 0 4.2469-1.858 1.6495-1.858 1.6495-4.7588z"/>
  <path d="m235.98 36.249h-3.1093v-11.186q0-6.067-4.5123-6.067-2.2751 0-3.8298 1.7632-1.5547 1.7443-1.5547 4.4934v10.996h-3.1093v-28.742h3.1093v12.551h0.0758q2.2372-3.6781 6.3703-3.6781 6.5599 0 6.5599 7.906z"/>
  <path d="m249.89 36.059q-1.0996 0.6067-2.9008 0.6067-5.1001 0-5.1001-5.6878v-11.489h-3.3368v-2.6543h3.3368v-4.7398l3.1093-1.0048v5.7447h4.8915v2.6543h-4.8915v10.94q0 1.9528 0.66358 2.787 0.66358 0.83421 2.1993 0.83421 1.1755 0 2.0286-0.64462z"/>
  <path d="m256.22 36.249h-3.1093v-28.742h3.1093z"/>
  <path d="m276.99 16.834-8.9298 22.524q-2.3889 6.0291-6.7116 6.0291-1.2134 0-2.0286-0.24647v-2.787q1.0048 0.34127 1.839 0.34127 2.351 0 3.5264-2.806l1.5547-3.6781-7.5837-19.376h3.4506l5.2517 14.94q0.0948 0.28439 0.39814 1.4788h0.11376q0.0948-0.45502 0.37919-1.4409l5.5172-14.978z"/>
 </g>
</svg>
