<?xml version="1.0" encoding="UTF-8"?>
<svg width="32" height="32" version="1.1" viewBox="0 0 32 32" xmlns="http://www.w3.org/2000/svg" xmlns:xlink="http://www.w3.org/1999/xlink">
 <defs>
  <linearGradient id="linearGradient846" x1="3.3391" x2="28.421" y1="16.001" y2="16.001" gradientUnits="userSpaceOnUse">
   <stop stop-color="#f000c8" offset="0"/>
   <stop stop-color="#9011ff" offset=".35079"/>
   <stop stop-color="#00a4b0" offset="1"/>
  </linearGradient>
 </defs>
 <path d="m9.6016 0.0019531c-0.82958 0.60658-3.9129-0.27751-4.5887 0.54362-3.011 2.3333-2.6877 5.8074-2.985 8.7582-0.13572 1.8177 0.10773 4.4526 0.53701 6.2535 0.85375 1.1616 0.62778 2.4747 0.8281 3.8777 0.69518 1.2625 1.9902 2.5441 2.8037 3.7501 0.84616 0.58745 0.2507 1.68 0.16231 3.184 0.06112 1.3849 3.1867 0.95932 3.5245 2.2633 0.81833 0.90833 0.61674 3.3713 2.0389 3.3353 2.3307 0.0028 4.6919 0.14307 7.0047-0.14954 1.074-0.15128 2.5017-1.2484 2.8774-1.7053-0.13928 0.72556 0.8419 0.45231 0.39084-0.1024 0.56435 0.58132 0.91988-0.36478 0.39847-0.7644 0.17296-0.05766 1.902-3.143 0.2914-2.4268-0.69728 0.9137-1.2659 0.90347-2.0896 1.9197-0.95946 0.85493-2.0694 0.42436-3.325 0.56428-1.5754 0.3841-2.4553 0.38232-3.5482-0.49615-1.2444-0.96055-2.0148-1.7602-3.0309-2.9234-1.3723-1.0598-1.0398-2.7819-1.4988-4.2255-0.39481-0.92576-0.07496-2.0609-0.73242-2.9062 1.3579-0.29749 2.8348 0.73842 4.1139-0.0052 0.73308-0.09549 1.75-3.0253 1.3482-1.2639-0.38981 1.1125-0.98182 2.5471-0.67838 3.4912-0.37615 0.29885-0.47083-0.96434 0 0 0.59925 1.2269 2.2739 1.6065 3.3076 0.74928-1.5322 0.37087-1.6246-1.2726-1.2632-2.5139 0.36937-1.3368-0.25472-2.8262-0.55596-4.1607 0.60698-0.95524 1.6023-0.01626 1.6472 0.55727-0.83964-0.65859 0.34334 2.7791 0.72068 2.4372 0.71972-0.24528 2.9542 0.16376 4.1783-0.18378 1.4062 0.0087 1.9574-1.9311 2.7413-2.8262 0.96167-0.96244 1.5303 0.99036 0.67932 1.5172 0.13908 1.4554 0.12136 3.2285-0.21686 4.7165-0.51111 0.66194-0.66773 1.1577-0.14958 1.9586 0.15622 0.36248 0.71858-1.9684 0.89886-0.6474 0.0017 1.1822 0.37069-0.68812 0.80014-0.77436 0.28177-0.46568 2.6196-0.81767 1.091-0.81436-0.74096 0.21198 0.62531 1.2353 1.2464 0 0.27955-1.5193 1.1313-3.6801 0.66392-5.2252 0.45792-0.62497-1.8791-2.6559-3.0044-1.5698-0.06526-1.2087 2.0847-1.4056 2.4143-0.43338 1.045 0.23523 0.25044-1.8236 0.31047-2.5101-0.44188-2.1279-0.24672-5.5507-1.1585-7.5469-0.79533-2.0705-2.2329-3.4486-4.4288-4.1814zm7.1504 0.5957c0.83952 0.10756-0.93935 0.094235 0 0zm3.7656 0.56055c0.5195 0.77982 0.7569 0.012826 1.4157 1.0245 0.63466 0.39713 1.9564-0.12191 1.3156 0.88216 0.03243 0.61143-0.12076 1.6487-0.38739 0.53949-0.24402-0.62562-1.3692-1.1298-0.44938-0.20591 0.5597 0.54252-0.62131 1.532 0.56054 1.3829 0.88423 1.219 1.7038 2.6229 2.372 3.9616 0.59261 0.45873 1.8353 0.26144 1.5749 1.2815-0.28686 0.55829 1.3112 1.7833 0.26765 1.1081 0.03909-0.69807-0.75374-1.491-0.57082-0.35853 0.01411 1.2435-1.2765 3.1588-2.6455 2.3252-1.3198-0.60578-2.122-0.87026-3.5164-1.0512-1.3535 0.0062-3.3682-0.34412-4.1403 0.81798-1.0769 0.45479-2.7732 0.03567-4.0083 0.18709-1.5318-0.27313-3.0721 0.47845-4.0951 1.4926 0.15224-1.2132 0.56968-2.3862-0.31423-3.3683-0.32209-1.4465 0.21068-2.8465 0.046634-4.2928 0.68633-0.555 1.9942-0.854 3.0615-1.2614 0.8181-0.81149 1.9206-1.7424 3.2383-1.6327-0.67952-0.72636 1.5334 0.046437 1.8033-0.6634 1.4606-0.71654 2.3964 0.08647 3.8595-0.38862-0.1235-0.9359 0.19299-0.21426 0.50255-1.2997 0.1343-0.11648 0.14747-0.31952 0.10938-0.48047zm-12.002 4.6328c0.51641 0.28522-0.55182 0.60266 0 0zm12.15 7.5488c0.49455 0.19082-0.63504 0.0763 0 0zm1.0801 0.47461c1.6334-0.39105 2.5013 1.8324 0.6946 2.317-1.172 0.5284-2.5179 0.69986-3.7883 0.56974-1.0674-0.24467-2.5235-2.8352-0.51342-2.237-0.52144 0.51385-0.46886 1.0811 0.18968 0.4497-0.25324-0.86508 0.86323-0.85843 1.4357-0.71966 0.14611 0.61377-1.0083-0.10016-0.17108 0.59207 1.3966 0.66501 1.1101-1.0155 2.1529-0.97188zm-8.8926 1.2363c0.67484 0.6118 1.2297 2.061-0.14821 2.507-1.2897 0.57442-3.2401 0.94534-4.14-0.45081-0.82278-0.82122-0.4894-1.9654 0.76668-1.6793 0.92175-0.19144 1.5081-0.12323 1.9103 0.72234 0.91094 0.27727 0.98559-0.83127 1.6112-1.0993zm-5.6719 4.4961c0.54634 0.94799-0.28907 1.2068 0 0zm10.352 0.74023c-0.22564 0.59747-0.29682 0.98052 0.59248 0.51432 1.184-0.47214-0.23195-0.34725-0.59248-0.51432zm-6.5391 2.0117c-1.0166 0.2788 0.28281 1.8492 0.11385 0.3165l-0.02917-0.22644-0.08467-0.09006zm3.9023 1.0254c-0.79736 0.02281-3.8937 0.11152-2.2551 1.2475 0.73364 0.54027 0.72598 2.0726 1.5376 1.3709 1.3318 0.94514 3.2147 0.18921 4.3785-0.29244 0.44208 0.9958 1.7674-0.78513 2.3223-1.6967 0.57715-0.96506-1.8139-0.55393-2.323-0.40375 1.1505 1.3732-1.4045 0.36735-1.8489 0.53025-0.23895 1.031-3.0296 0.8673-1.7952 0.02502 0.48302-0.22233 2.6386-0.13698 2.1376-0.66594-0.70903-0.12798-1.4361-0.11158-2.1538-0.11482zm4.4453 0.32422c1.3172 0.62824-0.96908 0.64008 0 0zm6.1213-0.0783c-0.93029-0.34462-1.3242 1.3835-2.4215 1.6302-0.09483 0.6913 0.61554 2.8106 1.2822 1.4925 0.26921-1.0171 1.7451-1.7907 1.1393-3.1227zm0.03498 2.1135c-0.08789 0.5454 0.69078 0.44632 0 0zm0.02148 0.86328c-0.49266 0.95412-0.58338 2.4696-0.30749 3.7138 0.11064 0.72736 0.17926 1.0231-0.27939 0.20218-0.67557 0.47323-1.1557 1.9817 0.24541 1.5371 0.71104 0.19076 0.77976-0.21695 0.63892-0.81992-0.0993-1.5332 0.59046-3.2469-0.29745-4.6332zm-14.83 0.02734c0.59618 0.19006 1.8511 2.9722 0.70994 1.485-0.27583-0.4641-0.64326-0.93591-0.70994-1.485z" fill="url(#linearGradient846)" stroke-width=".1448"/>
 <g fill="#11fffc" stroke-width="1.0941">
  <path d="m16.752 0.59766c-0.07873-9.723e-4 -0.16198 0.007034-0.23242 0.025391-0.14088 0.036712-0.06118 0.069315 0.17774 0.072266 0.23892 0.002951 0.35389-0.026743 0.25586-0.066406-0.04902-0.019832-0.12244-0.030278-0.20117-0.03125z"/>
  <path d="m8.5156 5.791c-0.079638 0-0.14453 0.10241-0.14453 0.22656 0 0.12416 0.064893 0.18594 0.14453 0.13672 0.079638-0.049219 0.14453-0.15162 0.14453-0.22656 0-0.074938-0.064893-0.13672-0.14453-0.13672z"/>
  <path d="m27.033 10.656c0.18392 0.65384 0.32151 0.83014 0.5625 0.70117 0.19919-0.1066-0.34463-0.20251-0.5625-0.70117z"/>
  <path d="m20.666 13.34c-0.0503-0.0021-0.1079 0.0064-0.16016 0.02734-0.11551 0.04622-0.08079 0.08099 0.08789 0.08789 0.15264 0.0063 0.23952-0.02806 0.19141-0.07617-0.02406-0.02405-0.06884-0.03696-0.11914-0.03906z"/>
  <path d="m21.746 13.814c-0.42694-0.04026-0.77734 0.16345-0.77734 0.52148 0 0.52484-1.1179 0.75087-1.5742 0.31836-0.24679-0.23392-0.09686-0.41968 0.16406-0.20312 0.14571 0.12093 0.19675 0.09314 0.21289-0.12109 0.01679-0.22294-0.06003-0.27081-0.375-0.23633-0.21756 0.02382-0.47436 0.09109-0.57031 0.15039-0.09595 0.05929-0.25058 0.06151-0.34375 0.0039-0.10781-0.06663-0.14142-0.03069-0.0918 0.09961 0.1408 0.3697-0.14147 0.85646-0.49414 0.85156-0.28722-4e-3 -0.30205-0.02832-0.10547-0.18164 0.12439-0.09702 0.26881-0.28848 0.32031-0.42578 0.07987-0.2129 0.0098-0.24447-0.47852-0.2168-0.5055 0.02864-0.57244 0.07488-0.57226 0.39453 2.89e-4 0.57927 0.85993 1.6223 1.5918 1.9316 0.37472 0.15841 2.4364-0.04482 3.1523-0.31055 0.83369-0.30944 1.8335-0.73714 1.6895-1.5898-0.08001-0.47358-0.18754-0.62251-0.58594-0.8125-0.14883-0.07097-1.0198-0.16041-1.1621-0.17383z"/>
  <path d="m12.854 15.051c-0.16594 0.03572-0.36863 0.21409-0.51172 0.51562-0.38107 0.80304-1.4183 0.8268-1.5391 0.03516-0.03118-0.2044-0.12969-0.30406-0.26367-0.26758-0.11756 0.03201-0.66093 0.07456-1.207 0.09375-1.353 0.04755-1.5058 0.21692-1.0508 1.1582 0.39282 0.81268 0.69512 1.1188 1.3203 1.3379 0.67544 0.23675 1.4065 0.20111 2.4434-0.11914 0.71925-0.22215 1.0421-0.4113 1.3184-0.77344 0.44054-0.57758 0.44217-0.59934 0.07617-0.99219-0.15928-0.17096-0.29102-0.46241-0.29102-0.64648-2e-6 -0.27074-0.12899-0.37752-0.29492-0.3418z"/>
  <path d="m7.1816 19.547c-0.1353 0-0.14045 0.10633-0.023437 0.54297 0.12312 0.4594 0.20902 0.40571 0.16992-0.10742-0.018205-0.23891-0.083785-0.43555-0.14648-0.43555z"/>
  <path d="m10.689 26.574c-0.03711 0.05018 0.02724 0.2713 0.24024 0.68945 0.39593 0.77733 0.91565 1.4535 1.0293 1.3398 0.03539-0.03539-0.17025-0.48327-0.45703-0.99609-0.40737-0.72844-0.75064-1.1168-0.8125-1.0332z"/>
 </g>
</svg>
